<?xml version="1.0" encoding="UTF-8"?>
<svg xmlns="http://www.w3.org/2000/svg" xmlns:xlink="http://www.w3.org/1999/xlink" width="64pt" height="64pt" viewBox="0 0 64 64" version="1.1">
<g id="surface8898608">
<path style=" stroke:none;fill-rule:nonzero;fill:rgb(100%,100%,100%);fill-opacity:1;" d="M 43.800781 7 C 36.144531 7 29.921875 13.226562 29.921875 20.878906 C 29.921875 21.339844 30.035156 21.789062 30.078125 22.238281 C 20.613281 21.335938 12.246094 16.773438 6.558594 9.800781 C 6.296875 9.464844 5.886719 9.285156 5.453125 9.316406 C 5.03125 9.34375 4.648438 9.589844 4.441406 9.960938 C 3.246094 12.015625 2.558594 14.378906 2.558594 16.921875 C 2.558594 19.996094 3.660156 22.808594 5.359375 25.121094 C 5.03125 24.976562 4.671875 24.894531 4.359375 24.71875 C 3.964844 24.511719 3.488281 24.519531 3.105469 24.75 C 2.71875 24.980469 2.484375 25.394531 2.480469 25.839844 L 2.480469 26 C 2.480469 30.714844 4.921875 34.808594 8.519531 37.320312 C 8.480469 37.316406 8.441406 37.328125 8.398438 37.320312 C 7.960938 37.246094 7.515625 37.398438 7.21875 37.734375 C 6.925781 38.070312 6.828125 38.535156 6.960938 38.960938 C 8.390625 43.40625 12.039062 46.800781 16.558594 48.039062 C 12.960938 50.179688 8.785156 51.441406 4.28125 51.441406 C 3.304688 51.441406 2.371094 51.390625 1.441406 51.28125 C 0.839844 51.199219 0.265625 51.550781 0.0664062 52.121094 C -0.140625 52.691406 0.0859375 53.324219 0.601562 53.640625 C 6.375 57.34375 13.230469 59.519531 20.601562 59.519531 C 32.546875 59.519531 41.914062 54.53125 48.199219 47.398438 C 54.484375 40.269531 57.761719 31.011719 57.761719 22.359375 C 57.761719 21.996094 57.730469 21.640625 57.71875 21.28125 C 60.066406 19.484375 62.160156 17.378906 63.800781 14.921875 C 64.125 14.445312 64.089844 13.808594 63.714844 13.371094 C 63.34375 12.929688 62.71875 12.796875 62.199219 13.039062 C 61.539062 13.335938 60.769531 13.363281 60.078125 13.601562 C 60.988281 12.386719 61.769531 11.074219 62.238281 9.601562 C 62.398438 9.09375 62.226562 8.539062 61.808594 8.210938 C 61.394531 7.886719 60.816406 7.84375 60.359375 8.121094 C 58.175781 9.414062 55.753906 10.324219 53.199219 10.878906 C 50.71875 8.558594 47.453125 7 43.800781 7 Z M 43.800781 9.558594 C 47.066406 9.558594 50.015625 10.953125 52.078125 13.160156 C 52.390625 13.480469 52.84375 13.613281 53.28125 13.519531 C 54.949219 13.191406 56.535156 12.703125 58.078125 12.078125 C 57.191406 13.28125 56.089844 14.304688 54.800781 15.078125 C 54.214844 15.363281 53.941406 16.039062 54.15625 16.65625 C 54.363281 17.265625 55.003906 17.621094 55.640625 17.480469 C 56.921875 17.324219 58.058594 16.804688 59.28125 16.480469 C 58.183594 17.664062 56.984375 18.734375 55.679688 19.679688 C 55.324219 19.941406 55.128906 20.359375 55.160156 20.800781 C 55.179688 21.320312 55.199219 21.835938 55.199219 22.359375 C 55.199219 30.359375 52.128906 39.046875 46.28125 45.679688 C 40.429688 52.316406 31.839844 56.960938 20.601562 56.960938 C 15.496094 56.960938 10.675781 55.828125 6.320312 53.839844 C 11.71875 53.425781 16.699219 51.515625 20.71875 48.359375 C 21.140625 48.023438 21.304688 47.464844 21.136719 46.953125 C 20.964844 46.445312 20.496094 46.09375 19.960938 46.078125 C 15.738281 46.003906 12.203125 43.550781 10.320312 40.078125 C 10.390625 40.078125 10.449219 40.078125 10.519531 40.078125 C 11.785156 40.078125 13.035156 39.921875 14.199219 39.601562 C 14.761719 39.433594 15.144531 38.914062 15.125 38.328125 C 15.105469 37.746094 14.691406 37.246094 14.121094 37.121094 C 9.566406 36.199219 6.148438 32.488281 5.359375 27.878906 C 6.648438 28.324219 7.96875 28.675781 9.398438 28.71875 C 9.984375 28.753906 10.515625 28.390625 10.695312 27.835938 C 10.875 27.28125 10.65625 26.671875 10.160156 26.359375 C 7.121094 24.324219 5.121094 20.859375 5.121094 16.921875 C 5.121094 15.460938 5.5 14.121094 6 12.839844 C 12.398438 19.863281 21.359375 24.53125 31.480469 25.039062 C 31.878906 25.058594 32.269531 24.894531 32.53125 24.589844 C 32.789062 24.28125 32.890625 23.871094 32.800781 23.480469 C 32.605469 22.648438 32.480469 21.769531 32.480469 20.878906 C 32.480469 14.609375 37.53125 9.558594 43.800781 9.558594 Z M 43.800781 9.558594 "/>
</g>
</svg>
